<?xml version="1.0" encoding="iso-8859-1"?>
<!-- Uploaded to: SVG Repo, www.svgrepo.com, Generator: SVG Repo Mixer Tools -->
<svg fill="#000000" height="800px" width="800px" version="1.1" id="Layer_1" xmlns="http://www.w3.org/2000/svg" xmlns:xlink="http://www.w3.org/1999/xlink" 
	 viewBox="0 0 512 512" xml:space="preserve">
<g>
	<g>
		<path d="M461.913,30.614H50.087C22.469,30.614,0,53.083,0,80.701v267.13c0,27.618,22.469,50.087,50.087,50.087h148.078
			l43.376,75.13c6.422,11.125,22.507,11.106,28.917,0l43.376-75.13h148.078c27.618,0,50.087-22.469,50.087-50.087V80.701
			C512,53.083,489.531,30.614,461.913,30.614z M478.609,347.832c0,9.206-7.49,16.696-16.696,16.696H304.196
			c-5.965,0-11.477,3.182-14.458,8.348L256,431.31l-33.737-58.435c-2.982-5.166-8.494-8.348-14.458-8.348H50.087
			c-9.206,0-16.696-7.49-16.696-16.696V80.701c0-9.206,7.49-16.696,16.696-16.696h411.826c9.206,0,16.696,7.49,16.696,16.696
			V347.832z"/>
	</g>
</g>
<g>
	<g>
		<path d="M360.714,142.664l-47.467,20.103c-11.829,5.011-13.782,20.974-3.547,28.7l6.033,4.553l-37.93,47.687l-53.487-67.247
			c-6.68-8.398-19.454-8.397-26.133,0l-66.553,83.674c-5.74,7.216-4.543,17.72,2.674,23.46c7.219,5.742,17.721,4.54,23.46-2.674
			l53.487-67.247l53.487,67.247c6.68,8.398,19.454,8.397,26.133,0l51.524-64.777l8.519,6.43
			c10.181,7.686,25.042,1.553,26.628-11.277l6.333-51.245C385.461,147.213,372.482,137.627,360.714,142.664z"/>
	</g>
</g>
</svg>